<?xml version="1.0" encoding="utf-8"?>
<!-- Generator: Adobe Illustrator 19.2.1, SVG Export Plug-In . SVG Version: 6.00 Build 0)  -->
<svg version="1.1" id="Layer_1" xmlns="http://www.w3.org/2000/svg" xmlns:xlink="http://www.w3.org/1999/xlink" x="0px" y="0px"
	 viewBox="0 0 99 99.2" style="enable-background:new 0 0 99 99.2;" xml:space="preserve">
<style type="text/css">
	.st0{fill:#FFFFFF;}
</style>
<g>
	<path d="M25.8,95.7c-1.5-0.8-3.2-1.5-4.9-1.9c-3.6-0.8-7.4-1.1-10.9-2.2c-5-1.5-7.3-5.1-6.5-10.3c0.9-5.8,0.8-11.5-0.8-17.2
		c-1.1-3.9-0.5-7.8,2.2-11c4.2-4.9,4.6-10.5,3.3-16.3c-1.3-6.2-1.1-11.6,4.8-15.7c2.1-1.5,3.5-4.1,4.8-6.5c2.8-5.1,7-7.3,12.7-7
		c5,0.3,10.1,1.1,15,0.3c4.9-0.8,9.8-2.7,14.4-4.9c5.4-2.6,15.3-2,19.3,2.4c1.2,1.4,2,3.7,1.9,5.6c-0.1,4.1,1.7,6.4,5.2,8.1
		c5.1,2.4,5.4,3.3,4.9,9.1c-0.1,1.6,0.3,3.6,1.2,5c3.5,5.2,3.8,8.7,0.1,13.8c-2.2,2.9-1.8,5.3-0.8,8.5c1.5,4.7,2.2,9.7,2.6,14.6
		c0.3,3.4-1.7,6.3-4.5,8.5c-2.6,2.1-4.5,4.9-7.2,6.9c-2.6,1.9-5.5,3.9-8.6,4.6c-12,2.8-24.1,5.1-36.2,7.5
		C35.8,97.9,27.7,96.7,25.8,95.7z M12.7,80.7c2.3,3.7,6.3,4.9,10.5,3c3.8-1.8,7.3-4.4,11-6.3c1.8-0.9,4.3-1.9,6-1.4
		c6.3,1.7,10.2-0.9,10.2-7.4c0-3.8,1.5-6.4,5.1-7.8c4.5-1.8,9.1-3.5,13.6-5.3c4.4-1.7,5.6-4.1,4.7-8.7c-0.6-2.9-1-5.8-1-8.8
		c0.1-7.7,0.6-15.3,0.5-23c0-6-4.8-8.4-10-5.3c-5.7,3.4-11.8,5.8-18.5,5.7c-4.2-0.1-8.5-0.2-12.7-0.6c-3.7-0.3-6.3,0.6-8.3,4.1
		c-1.8,3.1-4.1,5.9-6.7,8.4c-1.7,1.7-2.5,3.2-2,5.7c1.8,8.8,1.8,17.3-4.3,24.9c-1.1,1.4-0.7,4.2-0.5,6.2
		C10.6,67.5,11.6,78.9,12.7,80.7z"/>
	<path class="st0" d="M59.5,26.1c0.1-3.8-1-4.6-4.6-2.9c-2.4,1.1-4.6,2.8-7.1,3.8c-4.3,1.7-5.4,3.7-4.3,8.2c0.7,2.7,0.8,5.5,1.4,8.2
		c0.3,1.5,0.8,4,1.7,4.2c1.6,0.4,3.7-0.2,5.2-1.1c2.9-1.8,5.6-3.9,8.3-6.1c0.6-0.5,1.4-1.7,1.2-2.3c-1.1-3.3,2-7.3-1.7-10.1
		C59.2,27.8,59.5,26.8,59.5,26.1z M27.4,44c-1.6,2.7-3.3,5.2-4.7,7.9c-0.3,0.7,0.1,2.1,0.6,2.8c1.5,2,3.2,4,5,5.7
		c0.6,0.6,2.5,0.7,3.1,0.2c2.2-1.8,3.1-10.1,1.3-12.1C31.5,46.9,29.6,45.8,27.4,44z"/>
	<path d="M59.5,26.1c0,0.6-0.3,1.6,0,1.9c3.8,2.8,0.7,6.8,1.7,10.1c0.2,0.6-0.6,1.8-1.2,2.3c-2.7,2.1-5.4,4.3-8.3,6.1
		c-1.5,0.9-3.6,1.5-5.2,1.1c-0.9-0.2-1.4-2.7-1.7-4.2c-0.6-2.7-0.7-5.6-1.4-8.2c-1.1-4.5-0.1-6.5,4.3-8.2c2.5-1,4.7-2.7,7.1-3.8
		C58.5,21.6,59.6,22.3,59.5,26.1z"/>
	<path d="M27.4,44c2.2,1.7,4,2.9,5.4,4.4c1.8,1.9,0.9,10.3-1.3,12.1c-0.6,0.5-2.5,0.4-3.1-0.2c-1.9-1.7-3.5-3.7-5-5.7
		c-0.5-0.7-0.9-2.1-0.6-2.8C24.1,49.2,25.8,46.7,27.4,44z"/>
</g>
</svg>
