<?xml version="1.0" encoding="utf-8"?>
<!-- Generator: Adobe Illustrator 19.2.1, SVG Export Plug-In . SVG Version: 6.00 Build 0)  -->
<svg version="1.1" id="Find" xmlns="http://www.w3.org/2000/svg" xmlns:xlink="http://www.w3.org/1999/xlink" x="0px" y="0px"
	 viewBox="0 0 118.8 117.2" style="enable-background:new 0 0 118.8 117.2;" xml:space="preserve">
<path d="M116,100.8L88.7,73.5C93.3,66.1,96,57.4,96,48C96,21.5,74.5,0,48,0S0,21.5,0,48c0,26.5,21.5,48,48,48
	c10.2,0,19.6-3.2,27.4-8.6l27,27c1.9,1.9,4.3,2.8,6.8,2.8c2.5,0,4.9-0.9,6.8-2.8C119.7,110.6,119.7,104.5,116,100.8z M48,80.4
	c-17.9,0-32.4-14.5-32.4-32.4S30.1,15.6,48,15.6c17.9,0,32.4,14.5,32.4,32.4S65.9,80.4,48,80.4z"/>
</svg>
