<?xml version="1.0" encoding="utf-8"?>
<!-- Generator: Adobe Illustrator 19.2.1, SVG Export Plug-In . SVG Version: 6.00 Build 0)  -->
<svg version="1.1" id="Layer_1" xmlns="http://www.w3.org/2000/svg" xmlns:xlink="http://www.w3.org/1999/xlink" x="0px" y="0px"
	 viewBox="0 0 99.1 60.3" style="enable-background:new 0 0 99.1 60.3;" xml:space="preserve">
<g id="_x37_to5p2.tif">
	<g>
		<path d="M60,0c11.8,0,23.6,0,35.4,0c1.8,0,3.3,1.2,3.5,2.9c0.3,1.9-0.6,3.8-2.3,4c-2.1,0.2-3.1,1.6-4.3,2.9
			c-6.6,6.7-13.1,13.5-19.7,20.2c-2.3,2.4-5,3-8.2,2c-11.3-3.8-22.7-7.5-34-11.3c-1.5-0.5-2.5-1.4-2.8-3.1c-0.7-3.2-1.4-6.5-2.1-9.7
			c-0.1-0.6-0.3-0.8-0.9-0.8C22.4,7,21,5.6,21.1,3.4c0-2,1.5-3.4,3.7-3.4C36.5,0,48.3,0,60,0z"/>
		<path d="M78,47.5c0.8,3.4,3.7,5.7,7,5.6c3.5-0.1,6.3-2.6,6.8-6.2c0.5-3.1-1.5-6.4-4.6-7.5c-2.6-0.9-5.2-1.8-7.9-2.6
			c-0.9-0.3-1.6-0.7-1.7-1.8c-0.1-1.1,0.6-1.6,1.5-2C88.3,29,98.9,35.7,99,45.7c0.1,8.6-6.8,15.1-15.4,14.5
			c-7.1-0.5-13-6.7-12.9-13.9c0-1.1-0.3-1.6-1.4-1.9c-3.2-1-6.3-2.1-9.5-3.3c-0.8-0.3-1.2-0.1-1.7,0.5c-4.6,5.3-9.2,10.6-13.8,15.9
			c-2.1,2.5-5.1,3.4-7.8,2.4c-2.7-1-4.6-3.7-4.6-6.9c0-6.8,0-13.6,0-20.4c0-0.9-0.2-1.3-1.1-1.6C21.2,27.7,11.6,24.4,2,21
			c-1.4-0.5-2-1.4-2-2.7c0-1.2,0.8-2.2,2-2.5c0.6-0.1,1.3,0,1.8,0.2c13.7,4.4,27.3,8.9,41,13.3c13.6,4.4,27.2,8.8,40.7,13.2
			c2.7,0.9,3.7,3.5,2.2,5.6c-0.9,1.3-2.5,1.8-4.2,1.3C81.7,48.8,80,48.2,78,47.5z M38.9,53.1c4.3-5,8.5-9.8,12.8-14.7
			c-4.3-1.5-8.5-2.9-12.8-4.4C38.9,40.4,38.9,46.6,38.9,53.1z"/>
	</g>
</g>
</svg>
