<?xml version="1.0" encoding="utf-8"?>
<!-- Generator: Adobe Illustrator 19.2.1, SVG Export Plug-In . SVG Version: 6.00 Build 0)  -->
<svg version="1.1" id="Layer_1" xmlns="http://www.w3.org/2000/svg" xmlns:xlink="http://www.w3.org/1999/xlink" x="0px" y="0px"
	 viewBox="0 0 99.1 99.3" style="enable-background:new 0 0 99.1 99.3;" xml:space="preserve">
<g>
	<path d="M41.9,99.3c0-25.1-2.5-49.7-12.4-73.1c-4.1-9.6-9.7-18.1-17.2-25.4c0.2-0.3,0.4-0.6,0.6-0.9c2.8,1.8,5.7,3.3,8.3,5.3
		c12.2,9.7,20,22.5,25.5,36.9c7,18.4,9.7,37.5,9.3,57.1C51.3,99.3,46.6,99.3,41.9,99.3z"/>
	<path d="M99.1,35.1C93,42.5,89,51,85.8,59.9c-4.6,12.7-6,26-6.3,39.4c-4.7,0-9.4,0-14.1,0c-0.7-14.4,2.9-27.8,9.8-40.4
		c4.7-8.6,10.6-16.4,18.7-22.2c1.5-1.1,3.5-1.6,5.2-2.4C99.1,34.6,99.1,34.8,99.1,35.1z"/>
	<path d="M22.3,99.3C22.4,87.5,20.8,76,17,64.8C13.3,53.7,7.2,44,0,34.8c6,1.8,10.3,5.9,14.5,10.1c15,15,22,33.5,22.8,54.5
		C32.3,99.3,27.3,99.3,22.3,99.3z"/>
	<path d="M60.4,63.1c-1.1-4.7-2.3-9.3-3.4-14c-0.2-1-0.3-2.2,0-3.1c4.2-10.7,9.8-20.4,19.8-26.9c1.9-1.2,4.1-2.1,6.5-2.7
		C69.9,29.2,64.2,45.6,60.4,63.1z"/>
</g>
</svg>
