<?xml version="1.0" encoding="utf-8"?>
<!-- Generator: Adobe Illustrator 19.2.1, SVG Export Plug-In . SVG Version: 6.00 Build 0)  -->
<svg version="1.1" id="Layer_1" xmlns="http://www.w3.org/2000/svg" xmlns:xlink="http://www.w3.org/1999/xlink" x="0px" y="0px"
	 viewBox="0 0 100.8 100.8" style="enable-background:new 0 0 100.8 100.8;" xml:space="preserve">
<g>
	<path d="M44.5,0.8c0.3,0,0.5,0,0.8,0c4.1,1.1,7.8,2.7,9.5,7.1c0.2,0.5,1,1,1.5,1c4.4,0.2,7.3,2.8,9.3,6.4c5.5-2.8,9.4-2.7,12.5,0.5
		c3.6,3.7,3.5,7.8,1.1,12.1c5.5,2.2,5.5,2.2,8.9,7.5c0.5,0.8,1.5,1.3,2.4,1.7c3.5,1.6,5.6,4.1,5.7,8.1c0.1,3.9-1.6,6.9-5.1,8.4
		c-3.1,1.3-2.8,2.5-0.9,4.8c3.5,4,2.9,9.7-0.9,12.9c-4,3.3-9.2,2.9-12.8-1.3c-1.4-1.7-2.5-2.1-4.6-1.3c-5.4,2.2-10.4,1-13.8-2.9
		c-3.5-4-3.8-9.4-0.9-14.5c0.4-0.6,0.5-1.4,0.7-2.1c-2.9,1.4-6.7,3.1-6.9,5.3c-0.8,6.6-1.5,14,3.3,19.4c3.5,4,4.1,7.9,4,12.7
		c-0.1,8,1.8,9.9,9.5,11.7c2,0.4,3.7,1.8,5.6,2.8c-15.1,0-30.2,0-45.3,0c0.7-1.1,1.2-2.3,2.1-3.1c0.6-0.5,1.7-0.5,2.6-0.7
		c11.8-2.3,13.5-4.4,12.6-16.5c-0.2-2.5-0.5-4.9-0.8-7.4c-0.2-1.4-0.4-2.8-0.6-4.2c-2.5,1.4-4.4,3.1-6.6,3.6
		c-4.4,0.9-8.6,1.5-12.8,3.9c-4.5,2.6-8.6-0.3-11.9-6.8c-0.2-0.1-0.5-0.2-0.7-0.2c-5.8-0.2-9.2-2.4-10.2-6.6c-1.2-4.8,0.5-8,5.8-11
		c0.7-0.4,1.4-1.1,1.7-1.8c0.9-2.2,1.6-4.5,2.4-6.8c-1.2-0.3-2.4-0.5-3.7-0.8C2,40.4-0.9,32.7,3.5,28.5c3.5-3.3,6.3-6.2,7.4-11
		c0.3-1.5,2.6-3.3,4.2-3.6c2.9-0.6,5.9-0.2,9.3-0.2c1-5.6,4.5-9.1,11.5-8.2c0.4,0.1,1-0.3,1.4-0.5C39.7,3.6,42.1,2.2,44.5,0.8z"/>
</g>
</svg>
