<?xml version="1.0" encoding="utf-8"?>
<!-- Generator: Adobe Illustrator 19.2.1, SVG Export Plug-In . SVG Version: 6.00 Build 0)  -->
<svg version="1.1" id="Layer_1" xmlns="http://www.w3.org/2000/svg" xmlns:xlink="http://www.w3.org/1999/xlink" x="0px" y="0px"
	 viewBox="0 0 462.1 124.6" style="enable-background:new 0 0 462.1 124.6;" xml:space="preserve">
<style type="text/css">
	.st0{fill:#FFFFFF;}
	.st1{fill:none;}
	.st2{fill:#007934;}
</style>
<g>
	<path class="st0" d="M108.2,11.5c0-0.7,0.2-1.3,0.6-1.7c0.4-0.4,1-0.6,1.7-0.6h34.1c3,0,5.9,0.6,8.5,1.7c2.7,1.1,5,2.7,7,4.7
		c2,2,3.6,4.4,4.8,7c1.2,2.7,1.7,5.6,1.7,8.7c0,2.6-0.4,5-1.2,7.2c-0.8,2.2-1.9,4.2-3.4,5.9c2.5,2.3,4.4,5,5.9,8.1
		c1.4,3.1,2.2,6.4,2.2,9.9c0,3.1-0.6,6.1-1.8,8.9c-1.2,2.8-2.8,5.2-4.9,7.3c-2,2.1-4.4,3.8-7.1,5c-2.7,1.2-5.6,1.9-8.6,1.9h-37.2
		c-0.7,0-1.2-0.2-1.6-0.5c-0.4-0.4-0.6-0.9-0.6-1.7V11.5z M146.9,31.8c0-1-0.2-2-0.6-2.9c-0.4-0.9-0.9-1.7-1.6-2.4
		c-0.7-0.7-1.5-1.2-2.5-1.6c-1-0.4-2-0.6-3.1-0.6h-11v14.9H139c1.2,0,2.2-0.2,3.2-0.5c1-0.4,1.8-0.9,2.5-1.5
		c0.7-0.7,1.2-1.5,1.6-2.4C146.7,33.9,146.9,32.9,146.9,31.8z M149.6,61.6c0-1-0.2-2.1-0.6-3.1c-0.4-1-0.9-1.9-1.6-2.8
		c-0.7-0.8-1.5-1.5-2.5-2c-1-0.5-2-0.8-3.2-0.8h-13.6v17.2h13.6c1.1,0,2.2-0.2,3.1-0.7c1-0.5,1.8-1.1,2.5-1.9
		c0.7-0.8,1.3-1.7,1.7-2.7C149.4,63.8,149.6,62.7,149.6,61.6z"/>
	<path class="st0" d="M180.1,11.5c0-0.7,0.2-1.3,0.6-1.7c0.4-0.4,0.9-0.6,1.7-0.6h33.2c3.5,0,6.8,0.7,9.9,2c3.1,1.3,5.8,3.1,8.1,5.4
		c2.3,2.3,4.1,4.9,5.4,7.9c1.3,3,2,6.3,2,9.7c0,2.3-0.3,4.5-1,6.7c-0.6,2.1-1.5,4.1-2.6,5.9c-1.1,1.8-2.5,3.5-4,5
		c-1.6,1.5-3.3,2.8-5.1,3.8l13.2,24.9c0.2,0.5,0.5,1,0.9,1.7c0.4,0.7,0.6,1.2,0.6,1.7c0,0.5-0.2,1-0.5,1.3c-0.4,0.3-0.8,0.4-1.5,0.4
		h-17.6c-0.6,0-1.1-0.2-1.6-0.5c-0.5-0.3-0.8-0.8-0.9-1.4l-12.5-23.5H200v23.2c0,1.5-0.8,2.2-2.4,2.2h-15.3c-0.7,0-1.2-0.2-1.6-0.5
		c-0.4-0.4-0.6-0.9-0.6-1.7V11.5z M220.3,34.3c0-1-0.2-2.1-0.6-3.1c-0.4-1-0.9-2-1.6-2.8c-0.7-0.9-1.5-1.6-2.5-2.2
		c-1-0.6-2-1-3.2-1.1c-1-0.1-1.9-0.1-2.7-0.2c-0.8-0.1-1.8-0.1-2.7-0.1H200v18.9h9.5c0.6,0,1.2,0,1.6-0.1c0.5,0,1-0.1,1.6-0.2
		c1.2-0.1,2.3-0.5,3.2-1.1c1-0.6,1.8-1.3,2.4-2.1c0.6-0.8,1.1-1.8,1.5-2.8C220.2,36.5,220.3,35.4,220.3,34.3z"/>
	<path class="st0" d="M274.1,11.2c0-0.2,0.1-0.4,0.3-0.7c0.2-0.2,0.4-0.5,0.7-0.7c0.3-0.2,0.6-0.4,0.9-0.5c0.3-0.1,0.6-0.2,0.9-0.2
		h13.2c0.6,0,1.1,0.2,1.5,0.5c0.4,0.4,0.7,0.7,0.9,1l1.3,2.9l27,69.6c0.3,0.7,0.2,1.2-0.2,1.7c-0.4,0.4-1,0.6-2,0.6h-14.7
		c-0.8,0-1.4-0.1-1.8-0.4c-0.4-0.3-0.8-0.8-1-1.5c-0.7-1.7-1.4-3.5-2-5.2c-0.7-1.7-1.3-3.5-2-5.2h-27.3c-0.7,1.7-1.3,3.5-2,5.2
		c-0.7,1.7-1.3,3.5-2,5.2c-0.4,1.3-1.3,1.9-2.6,1.9h-15.2c-0.7,0-1.2-0.2-1.6-0.5c-0.4-0.3-0.5-0.9-0.2-1.5L274.1,11.2z M283.5,33.2
		c-0.7,1.7-1.3,3.6-2,5.7c-0.7,2-1.3,4.1-2,6.1c-0.7,2.1-1.3,4.1-2,6.1c-0.7,2-1.3,3.9-2,5.6h15.8L283.5,33.2z"/>
	<path class="st0" d="M394.9,47.4c0,3.6-0.5,7.1-1.4,10.4c-0.9,3.3-2.2,6.3-4,9.1c-1.7,2.8-3.8,5.4-6.1,7.7c-2.4,2.3-5,4.2-7.9,5.9
		c-2.9,1.6-6,2.9-9.4,3.7c-3.4,0.9-6.8,1.3-10.4,1.3h-25.3c-0.6,0-1.2-0.1-1.6-0.4c-0.5-0.3-0.7-0.9-0.7-1.7V11.5
		c0-0.7,0.2-1.3,0.6-1.7c0.4-0.4,1-0.7,1.8-0.7h25.3c3.6,0,7.1,0.4,10.4,1.3c3.3,0.9,6.5,2.2,9.4,3.8c2.9,1.6,5.5,3.6,7.9,5.9
		c2.4,2.3,4.4,4.9,6.1,7.7c1.7,2.8,3,5.9,4,9.2C394.5,40.3,394.9,43.8,394.9,47.4z M347.9,27.6v39.5h4.3c0.8,0,1.6,0,2.3-0.1
		c0.8-0.1,1.5-0.1,2.3-0.2c2.6-0.2,5-0.8,7.2-1.9c2.2-1,4.2-2.4,5.8-4.1c1.7-1.7,3-3.7,3.9-6c0.9-2.3,1.4-4.8,1.4-7.5
		c0-2.9-0.5-5.5-1.6-7.9c-1.1-2.4-2.5-4.5-4.4-6.3c-1.9-1.8-4-3.1-6.5-4.1c-2.5-1-5.1-1.5-7.9-1.5H347.9z"/>
	<path class="st0" d="M427.2,37.3l12.4-26.6c0.2-0.4,0.4-0.7,0.5-0.9c0.1-0.2,0.3-0.3,0.4-0.4c0.1-0.1,0.3-0.1,0.4-0.2
		c0.2,0,0.3-0.1,0.5-0.1h19.8c0.2,0,0.4,0.1,0.6,0.2c0.2,0.2,0.2,0.3,0.2,0.5c0,0.4-0.2,0.8-0.7,1.3L437,54.3v28.7
		c0,1.6-0.8,2.4-2.4,2.4h-15.4c-0.7,0-1.2-0.2-1.6-0.6c-0.4-0.4-0.6-1-0.6-1.8V54.2l-24.3-43c-0.4-0.4-0.7-0.9-0.7-1.3
		c0-0.2,0.1-0.4,0.2-0.5c0.1-0.2,0.3-0.2,0.6-0.2h19.8c0.2,0.1,0.4,0.1,0.6,0.1c0.1,0,0.3,0.1,0.4,0.2c0.1,0.1,0.3,0.2,0.4,0.4
		c0.1,0.2,0.3,0.5,0.6,0.9L427.2,37.3z"/>
</g>
<g>
	<g>
		<polyline class="st1" points="44.8,16.6 44.8,45.3 17.8,45.3 		"/>
		<path class="st2" d="M44.8,16.6c-3.5-3.2-8.2-5.2-13.4-5.2c-10.9,0-19.7,8.8-19.7,19.7c0,5.6,2.3,10.6,6.1,14.2h27V16.6z"/>
		<path class="st0" d="M12.5,45.3c-3-4-4.8-8.9-4.8-14.2C7.7,18,18.3,7.4,31.4,7.4c5,0,9.6,1.5,13.4,4.1V0H2.8C1.3,0,0,1.3,0,2.8
			v42.4H12.5z"/>
	</g>
	<g>
		<polyline class="st1" points="48.6,16.6 48.6,45.3 75.6,45.3 		"/>
		<path class="st2" d="M48.6,16.6c3.5-3.2,8.2-5.2,13.4-5.2c10.9,0,19.7,8.8,19.7,19.7c0,5.6-2.3,10.6-6.1,14.2h-27V16.6z"/>
		<path class="st0" d="M80.9,45.3c3-4,4.8-8.9,4.8-14.2C85.7,18,75,7.4,62,7.4c-5,0-9.6,1.5-13.4,4.1V0h41.9c1.6,0,2.8,1.3,2.8,2.8
			v42.4H80.9z"/>
	</g>
	<g>
		<polyline class="st1" points="44.8,78.1 44.8,49.4 17.8,49.4 		"/>
		<path class="st2" d="M44.8,78.1c-3.5,3.2-8.2,5.2-13.4,5.2c-10.9,0-19.7-8.8-19.7-19.7c0-5.6,2.3-10.6,6.1-14.2h27V78.1z"/>
		<path class="st0" d="M12.5,49.4c-3,4-4.8,8.9-4.8,14.2c0,13.1,10.6,23.7,23.7,23.7c5,0,9.6-1.5,13.4-4.1v11.5H2.8
			c-1.6,0-2.8-1.3-2.8-2.8V49.4H12.5z"/>
	</g>
	<g>
		<polyline class="st1" points="48.6,78.1 48.6,49.4 75.6,49.4 		"/>
		<path class="st2" d="M48.6,78.1c3.5,3.2,8.2,5.2,13.4,5.2c10.9,0,19.7-8.8,19.7-19.7c0-5.6-2.3-10.6-6.1-14.2h-27V78.1z"/>
		<path class="st0" d="M80.9,49.4c3,4,4.8,8.9,4.8,14.2C85.7,76.7,75,87.3,62,87.3c-5,0-9.6-1.5-13.4-4.1v11.5h41.9
			c1.6,0,2.8-1.3,2.8-2.8V49.4H80.9z"/>
	</g>
</g>
<g>
	<path class="st0" d="M148.3,100c0-3.4,3.1-5.4,6.5-5.4c3.1,0,6.9,1.7,6.9,3.6c0,1.3-2.3,1.8-2.3,1.8c-0.9-2.1-2.1-3.1-4.7-3.1
		c-1.9,0-3.8,1.3-3.8,3.1c0,4.3,10.7,4.7,10.7,11.2c0,3.7-3.4,5.6-6.9,5.6c-2.6,0-6.8-1.5-6.8-3.3c0-1.8,1.6-2.1,1.6-2.1
		c1.2,2.1,3,3.1,5.2,3.1c2,0,4.2-1.2,4.2-3.3C159,106.9,148.3,106.5,148.3,100z"/>
	<path class="st0" d="M166.4,103.3h-2.1v-1.6c2.5,0,2.5-2.8,2.5-4.1h2.3v3.7h3.3v1.9h-3.3v7.7c0,2.3,0.3,3,2.3,3h0.9v2.5h-2
		c-2.5,0-3.8-1.8-3.8-5.6V103.3z"/>
	<path class="st0" d="M181.8,116.8c-4.9,0-7.2-3.7-7.2-7.7c0-4.1,2.2-7.8,7.2-7.8c4.9,0,7.1,3.7,7.1,7.7
		C189,113.1,186.8,116.8,181.8,116.8z M177.3,109c0,2.8,1.1,5.6,4.5,5.6c3.4,0,4.5-2.8,4.5-5.6c0-2.8-1.1-5.6-4.5-5.6
		C178.5,103.4,177.3,106.2,177.3,109z"/>
	<path class="st0" d="M203.2,116.6V109c0-2.8-0.4-5.5-2.7-5.5c-1.6,0-4.1,1.8-4.1,5.5v4.3c0,1.2,1.1,1.5,2.2,1.5v1.9h-7.1v-1.9
		c1.2,0,2.2-0.3,2.2-1.5v-8.5c0-1.2-1.1-1.5-2.2-1.5v-1.9h4.5l0.4,2.6c0.9-1.4,1.8-2.8,4.1-2.8c3.9,0,5.4,3.5,5.4,7.8v4.3
		c0,1.2,1.1,1.5,2.2,1.5v1.9H203.2z"/>
	<path class="st0" d="M215.2,110.1h-2.5c0.2,2.8,1.3,4.4,4.1,4.4c2.2,0,4-1,4.6-2.7c0.8,0,1.3,0.7,1.3,1.4c0,2.6-3.3,3.7-5.8,3.7
		c-4.3,0-6.9-2.8-6.9-7.7c0-4.5,2.4-7.8,6.6-7.8c3,0,6.1,1.6,6.1,4.7C222.7,108.8,219.7,110.1,215.2,110.1z M220,106
		c0-1.7-1.7-2.6-3.4-2.6c-2.4,0-3.8,2.1-3.9,4.5h2.5C217.5,107.9,220,107.5,220,106z"/>
	<path class="st0" d="M248.7,116.6l-2.1-2.1c-1.5,1.3-3.4,2.3-6,2.3c-3.6,0-7.3-1.8-7.3-5.6c0-2.9,2.2-4.7,4.2-5.7
		c-1.5-1.4-2.6-3.4-2.6-5.6c0-3.2,2.1-5.4,5.6-5.4c3.1,0,5.3,2.2,5.3,5.4c0,2.7-2.3,5.1-4.4,5.7l5.2,5.2c0.4-1.1,0.5-3.5,0.5-6h4.3
		v1.5c-1.9,0-2.2,0.5-2.2,1.5c0,2.1-0.3,3.5-1.1,4.5l1.3,1.3c1.1,1.1,2,1.2,2.9,1.2v1.9H248.7z M240.7,114.8c2.2,0,3.4-0.6,4.5-1.8
		l-6.2-6.2c-1.5,0.3-2.9,2-2.9,4.4C236.1,113.3,238.2,114.8,240.7,114.8z M240.6,96.5c-2.1,0-2.9,1.8-2.9,3.4c0,1.6,1.3,3.3,2.5,4.3
		c1.6-0.8,3.1-2.2,3.1-4.3C243.3,98.3,242.3,96.5,240.6,96.5z"/>
	<path class="st0" d="M263.2,116.6v-1.9c2,0,2.2-0.5,2.2-1.5V98.1c0-0.9-0.2-1.5-2.2-1.5v-1.9h7.1v1.9c-2,0-2.2,0.6-2.2,1.5v16.3
		h6.5c1,0,1.5-0.4,1.5-2.2h1.9l-0.4,4.5H263.2z"/>
	<path class="st0" d="M286.8,101.2c3.4,0,5.8,1.6,5.8,4.7v7.3c0,1.1,0.2,1.5,2.2,1.5v1.9h-4.5l-0.4-2.4c-0.2,1.1-1.7,2.6-3.7,2.6
		c-2.9,0-5.3-1.3-5.3-4.7c0-3.6,2.7-4.6,5.7-5l3.3-0.4V106c0-1.7-1.2-2.5-3.2-2.5c-2.8,0-3,2.2-3,2.2c-1.8,0-2.3-0.6-2.3-1.6
		C281.5,102.5,284.3,101.2,286.8,101.2z M286.7,109.3c-2.3,0.3-3.1,0.5-3.1,2.7c0,2,1.4,2.5,2.8,2.5c1.1,0,3.7-0.3,3.7-4V109
		L286.7,109.3z"/>
	<path class="st0" d="M308.7,116.6V109c0-2.8-0.4-5.5-2.7-5.5c-1.6,0-4.1,1.8-4.1,5.5v4.3c0,1.2,1.1,1.5,2.2,1.5v1.9h-7.1v-1.9
		c1.2,0,2.2-0.3,2.2-1.5v-8.5c0-1.2-1.1-1.5-2.2-1.5v-1.9h4.5l0.4,2.6c0.9-1.4,1.8-2.8,4.1-2.8c3.9,0,5.4,3.5,5.4,7.8v4.3
		c0,1.2,1.1,1.5,2.2,1.5v1.9H308.7z"/>
	<path class="st0" d="M322.7,101.2c1.6,0,3.3,0.9,4.1,2v-5.2c0-1.1-0.2-1.5-2.2-1.5v-1.9h4.8v18.6c0,0.9,0.2,1.5,2.2,1.5v1.9h-4.5
		l-0.4-2.2c-0.5,1.1-2.3,2.3-4.1,2.3c-4.2,0-7.2-3.3-7.2-7.8C315.5,104.2,318.5,101.2,322.7,101.2z M322.7,103.5
		c-3.4,0-4.6,2.1-4.6,5.5c0,3.1,1.9,5.6,4.6,5.6c1.4,0,4-0.8,4-5.6v-0.7C326.8,103.8,324,103.5,322.7,103.5z"/>
	<path class="st0" d="M344.2,112.6c0,2.6-2.8,4.2-5.2,4.2c-2.7,0-5.2-1.1-5.2-2.8c0-1.3,1.5-1.8,1.5-1.8c0.4,1.2,1.1,2.2,3.8,2.2
		c1.6,0,2.7-0.5,2.7-1.7c0-3-7.9-2.6-7.9-7.4c0-2.5,2.5-3.9,4.9-3.9c2.4,0,5,0.9,5,3c0,1.3-2,1.5-2,1.5c-0.1-1.3-0.4-2.3-3-2.3
		c-1.6,0-2.4,0.4-2.4,1.7C336.3,108.3,344.2,107.8,344.2,112.6z"/>
	<path class="st0" d="M349.5,109c0,2.8,1.1,5.6,4.5,5.6c2.4,0,4.4-1.1,4.9-2.9c0,0,1.3,0.1,1.3,1.4c0,1.8-2.7,3.7-6.2,3.7
		c-4.9,0-7.2-3.7-7.2-7.7c0-4.1,2.2-7.8,7.2-7.8c3.5,0,6.2,1.9,6.2,3.6c0,1.7-2,1.8-2,1.8c-0.5-1.8-1.8-3.2-4.2-3.2
		C350.6,103.4,349.5,106.2,349.5,109z"/>
	<path class="st0" d="M368.9,101.2c3.4,0,5.8,1.6,5.8,4.7v7.3c0,1.1,0.2,1.5,2.2,1.5v1.9h-4.5l-0.4-2.4c-0.2,1.1-1.7,2.6-3.7,2.6
		c-2.9,0-5.3-1.3-5.3-4.7c0-3.6,2.7-4.6,5.7-5l3.3-0.4V106c0-1.7-1.2-2.5-3.2-2.5c-2.8,0-3,2.2-3,2.2c-1.8,0-2.3-0.6-2.3-1.6
		C363.7,102.5,366.4,101.2,368.9,101.2z M368.8,109.3c-2.3,0.3-3.1,0.5-3.1,2.7c0,2,1.4,2.5,2.8,2.5c1.1,0,3.7-0.3,3.7-4V109
		L368.8,109.3z"/>
	<path class="st0" d="M378.5,124.4v-1.9c2,0,2.2-0.4,2.2-1.5v-16.3c0-1.1-0.2-1.5-2.2-1.5v-1.9h4.5l0.4,2.2c0.5-1.1,2.3-2.3,4.1-2.3
		c4.2,0,7.2,3.3,7.2,7.8c0,4.7-3,7.7-7.2,7.7c-1.6,0-3.2-0.6-4-1.7v6c0,1.1,0.2,1.5,2.2,1.5v1.9H378.5z M387.4,114.5
		c3.4,0,4.6-2.1,4.6-5.5c0-3.1-1.9-5.6-4.6-5.6c-1.4,0-4,0.8-4,5.6v0.7C383.3,114.2,386,114.5,387.4,114.5z"/>
	<path class="st0" d="M404.3,114.8v1.9h-7.1v-1.9c1.8,0,2.2-0.4,2.2-1.5v-8.5c0-1-0.4-1.5-2.2-1.5v-1.9h4.9v11.9
		C402.1,114.3,402.6,114.8,404.3,114.8z M400.4,94.6c1,0,1.8,0.8,1.8,1.8c0,1-0.8,1.8-1.8,1.8c-1,0-1.8-0.8-1.8-1.8
		C398.6,95.4,399.4,94.6,400.4,94.6z"/>
	<path class="st0" d="M418.2,116.6V109c0-2.8-0.4-5.5-2.7-5.5c-1.6,0-4.1,1.8-4.1,5.5v4.3c0,1.2,1.1,1.5,2.2,1.5v1.9h-7.1v-1.9
		c1.2,0,2.2-0.3,2.2-1.5v-8.5c0-1.2-1.1-1.5-2.2-1.5v-1.9h4.5l0.4,2.6c0.9-1.4,1.8-2.8,4.1-2.8c3.9,0,5.4,3.5,5.4,7.8v4.3
		c0,1.2,1.1,1.5,2.2,1.5v1.9H418.2z"/>
	<path class="st0" d="M437,107.1c0,3.9-2.3,5.4-5.6,5.4c-1.4,0-2.1-0.2-2.8-0.5c-0.6,0.4-1.1,0.9-1.1,1.8c0,0.9,0.6,1.7,2.6,1.7h1.5
		c4.7,0,6.6,1.7,6.6,4.1c0,3.2-2.7,4.9-6.8,4.9c-3.9,0-6.6-0.9-6.6-4.7c0-1.6,1.3-3.5,2.4-3.7c-1.1-0.2-2-0.9-2-2.2
		c0-1.9,1.4-2.6,2-2.8c-1.2-0.9-1.5-2.1-1.5-4.1c0-3.9,2-5.8,5.6-5.8c1.6,0,2.7,0.4,3.7,1.1c0,0,0.8-1.1,2.3-1.1
		c0.9,0,2.4,0.1,2.4,1.2c0,1.2-0.9,1.4-0.9,1.4s-0.3-0.7-1.6-0.7c-0.5,0-0.8,0.6-0.8,0.6C436.8,104.2,437,105.4,437,107.1z
		 M431.5,117.7h-0.7c-2.3,0-3.3,0.7-3.3,1.8c0,1.7,0.9,2.9,4,2.9c3.2,0,4.1-1.3,4.1-2.7C435.6,118.9,435.4,117.7,431.5,117.7z
		 M428.4,107.1c0,2.6,1.5,3.3,3,3.3c1.5,0,3-0.6,3-3.3c0-2.6-1.5-3.6-2.9-3.6C429.9,103.5,428.4,104.4,428.4,107.1z"/>
</g>
</svg>
