<?xml version="1.0" encoding="utf-8"?>
<!-- Generator: Adobe Illustrator 19.2.1, SVG Export Plug-In . SVG Version: 6.00 Build 0)  -->
<svg version="1.1" id="Layer_1" xmlns="http://www.w3.org/2000/svg" xmlns:xlink="http://www.w3.org/1999/xlink" x="0px" y="0px"
	 viewBox="0 0 99.8 99.6" style="enable-background:new 0 0 99.8 99.6;" xml:space="preserve">
<g>
	<path d="M0.2,94.9c1.4-0.5,2.7-1.4,4.2-1.6c9.2-1.1,16.6-6,24-11c0-0.4-0.1-0.7-0.1-1.1c-3.1,0-6.2,0-9.6,0
		c-0.1-3.4,6.7-7.1-1.4-10.5c2.7-1.2,4.5-2,6.2-2.9c1.6-0.8,3.3-1.6,4.9-2.5c-1.4-1.3-2.8-2.7-4.3-3.9c-4.3-3.1-8.7-5.9-13-9
		c-0.9-0.6-1.4-1.8-2-2.7c0.3-0.3,0.5-0.5,0.6-0.6c8.3-2.1,8.7-3.1,5.7-10.8c-1.2-2.9-2-6-3-9c0.3-0.3,0.6-0.6,0.8-1
		c3.3,1.2,6.6,2.5,9.9,3.5c1.7,0.5,3.6,0.6,5.4,0.9c0.1-2.1,0.3-4.2,0.4-6.2c0-0.5-0.3-0.9-0.5-1.8c8.8,0.2,12.6,7.7,19.1,12.8
		c2.8-9.6,1.1-18.9,3.2-28.7c2.8,1.8,5.4,3.2,7.7,5.1c2.3,1.9,4,1.9,5.8-0.4c1.9-2.6,3.8-5.2,5.9-7.7c0.9-1.1,2-1.9,3.2-3.1
		c4.5,6.5,5.1,13.7,5.6,20.9c4.2,0.2,8.2,0.5,12.9,0.7C88.1,34,81.1,40.7,75.3,48.8C82,52.5,90.7,52,95.1,59.5
		c-2.1,1.2-4.2,2.3-6.6,3.6c3.8,5.1,10.1,8,10.2,15.4c-5.8-1-11.5-2-16.7-3c0.3,4.4,0.5,8.3,0.7,12.2c-0.4,0.2-0.9,0.3-1.3,0.5
		c-5.8-4.1-10.9-9.6-19.2-9.6c0.4,5.7,0.7,11.3-3.5,16.1c-0.7-1.4-1.4-2.6-2.1-3.8c-2-3.3-4.5-3.3-6.6-0.1c-1.2,1.8-2.4,3.7-3.7,5.4
		c-0.4,0.6-1.2,0.9-2.5,1.9c0.3-5.4-2.1-8.7-6.8-10.6c3.4-4.1,6.5-7.9,9.6-11.7c1.1-1.3,2.2-2.7,2.8-4.2
		c4.3-9.9,12.4-12.3,22.3-11.1c0-0.4,0-0.8,0-1.2c-4.7-0.5-9.5-1-14.4-1.5c1.5-4.1,3-8.4,4.6-12.7c-0.2-0.1-0.4-0.1-0.6-0.2
		c-2.8,5-5.7,10-8.6,15.2c-4.5-3.3-8.6-6.3-12.7-9.3c-0.2,0.2-0.4,0.5-0.5,0.7c2.4,2.7,4.8,5.4,7.1,8.2c2.4,2.9,2.6,5.4-0.2,8.8
		c-9.8,11.9-21.8,21-35.5,27.9c-3.4,1.7-6.9,3.9-10.7,0.7C0.2,96.5,0.2,95.7,0.2,94.9z"/>
</g>
</svg>
