<?xml version="1.0" encoding="utf-8"?>
<!-- Generator: Adobe Illustrator 19.2.1, SVG Export Plug-In . SVG Version: 6.00 Build 0)  -->
<svg version="1.1" id="Layer_1" xmlns="http://www.w3.org/2000/svg" xmlns:xlink="http://www.w3.org/1999/xlink" x="0px" y="0px"
	 viewBox="0 0 99.4 78.4" style="enable-background:new 0 0 99.4 78.4;" xml:space="preserve">
<g>
	<path d="M76.9,0.1c0,5.5,0,10.3,0,15.8c-12.3,0-24.4,0-37.1,0c0-5.1,0-10.1,0-15.8C51.8,0.1,63.9,0.1,76.9,0.1z"/>
	<path d="M22.7,20.4c12.4,0,24,0,36.5,0c0,5.4,0,10.6,0,16.4c-11.9,0-23.8,0-36.5,0C22.7,31.7,22.7,26.5,22.7,20.4z"/>
	<path d="M76.7,41.4c0,5.7,0,10.7,0,16.2c-12.4,0-24.2,0-36.8,0c0-5.3,0-10.5,0-16.2C52.1,41.4,63.9,41.4,76.7,41.4z"/>
	<path d="M59.3,78.4c-12.2,0-24.1,0-36.7,0c0-5.4,0-10.6,0-16.3c12.2,0,24.1,0,36.7,0C59.3,67.5,59.3,72.7,59.3,78.4z"/>
	<path d="M35.4,0.1c0,5.6,0,10.4,0,15.8C23.6,16,12.1,16,0,16C0,10.7,0,5.7,0,0.1C11.8,0.1,23.6,0.1,35.4,0.1z"/>
	<path d="M99.4,20.8c0,5.5,0,10.3,0,15.8c-11.8,0-23.3,0-35.4,0c0-5.1,0-10.1,0-15.8C75.5,20.8,87,20.8,99.4,20.8z"/>
	<path d="M35.2,57.7c-11.9,0-23.2,0-35.1,0c0-5.4,0-10.4,0-16.1c11.5,0,23,0,35.1,0C35.2,46.7,35.2,51.7,35.2,57.7z"/>
	<path d="M99.2,78.4c-12.2,0-23.5,0-35.3,0c0-5.5,0-10.5,0-16.1c11.7,0,23.2,0,35.3,0C99.2,67.6,99.2,72.6,99.2,78.4z"/>
	<path d="M81.2,16c0-5.4,0-10.3,0-16c6,0,11.7,0,18,0c0,5.4,0,10.4,0,16C93.2,16,87.5,16,81.2,16z"/>
	<path d="M18,20.7c0,5.5,0,10.5,0,16.1c-5.9,0-11.5,0-17.8,0c0-5.1,0-10.3,0-16.1C5.8,20.7,11.4,20.7,18,20.7z"/>
	<path d="M99.2,57.6c-6.4,0-11.9,0-18,0c0-5.5,0-10.5,0-16.1c6,0,11.7,0,18,0C99.2,46.8,99.2,51.8,99.2,57.6z"/>
	<path d="M0,62c6.1,0,11.7,0,17.8,0c0,5.4,0,10.3,0,16.1c-5.7,0-11.4,0-17.8,0C0,73.1,0,68.1,0,62z"/>
</g>
</svg>
